name rise32.9588peak41.5061fall63.4684.mot
datacolumns 19
datarows 18
range 1.70665900000000 1.73499400000000
endheader
time	ground_force1_vx	ground_force1_vy	ground_force1_vz	ground_force1_px	ground_force1_py	ground_force1_pz	ground_force2_vx	ground_force2_vy	ground_force2_vz	ground_force2_px	ground_force2_py	ground_force2_pz	ground_torque1_x	ground_torque1_y	ground_torque1_z	ground_torque2_x	ground_torque2_y	ground_torque2_z	
1.70665900000000	6.97273000000000	714.41126399999996	37.93984800000000	0.20350500000000	0.00000000000000	0.10146600000000	0.00000000000000	0.00000000000000	0.00000000000000	0.00000000000000	0.00000000000000	0.00000000000000	0.00000000000000	14.95245000000000	0.00000000000000	0.00000000000000	0.00000000000000	0.00000000000000	
1.70833100000000	6.62600300000000	715.22442000000001	37.98507300000000	0.20276300000000	0.00000000000000	0.10147200000000	0.00000000000000	0.00000000000000	0.00000000000000	0.00000000000000	0.00000000000000	0.00000000000000	0.00000000000000	15.02770900000000	0.00000000000000	0.00000000000000	0.00000000000000	0.00000000000000	
1.70999600000000	6.27513600000000	716.07348900000000	38.03461800000000	0.20201200000000	0.00000000000000	0.10148000000000	0.00000000000000	0.00000000000000	0.00000000000000	0.00000000000000	0.00000000000000	0.00000000000000	0.00000000000000	15.10558800000000	0.00000000000000	0.00000000000000	0.00000000000000	0.00000000000000	
1.71166600000000	5.91970600000000	716.95715299999995	38.08837200000000	0.20125200000000	0.00000000000000	0.10148800000000	0.00000000000000	0.00000000000000	0.00000000000000	0.00000000000000	0.00000000000000	0.00000000000000	0.00000000000000	15.18600700000000	0.00000000000000	0.00000000000000	0.00000000000000	0.00000000000000	
1.71332700000000	5.55931300000000	717.87411199999997	38.14622700000000	0.20048200000000	0.00000000000000	0.10149700000000	0.00000000000000	0.00000000000000	0.00000000000000	0.00000000000000	0.00000000000000	0.00000000000000	0.00000000000000	15.26888500000000	0.00000000000000	0.00000000000000	0.00000000000000	0.00000000000000	
1.71499800000000	5.19358600000000	718.82308799999998	38.20807200000000	0.19970100000000	0.00000000000000	0.10150600000000	0.00000000000000	0.00000000000000	0.00000000000000	0.00000000000000	0.00000000000000	0.00000000000000	0.00000000000000	15.35413700000000	0.00000000000000	0.00000000000000	0.00000000000000	0.00000000000000	
1.71665900000000	4.82217900000000	719.80282799999998	38.27379800000000	0.19890800000000	0.00000000000000	0.10151600000000	0.00000000000000	0.00000000000000	0.00000000000000	0.00000000000000	0.00000000000000	0.00000000000000	0.00000000000000	15.44167900000000	0.00000000000000	0.00000000000000	0.00000000000000	0.00000000000000	
1.71833900000000	4.44477900000000	720.81210899999996	38.34329800000000	0.19810400000000	0.00000000000000	0.10152700000000	0.00000000000000	0.00000000000000	0.00000000000000	0.00000000000000	0.00000000000000	0.00000000000000	0.00000000000000	15.53142200000000	0.00000000000000	0.00000000000000	0.00000000000000	0.00000000000000	
1.71999500000000	4.06110300000000	721.84974199999999	38.41646600000000	0.19728800000000	0.00000000000000	0.10153900000000	0.00000000000000	0.00000000000000	0.00000000000000	0.00000000000000	0.00000000000000	0.00000000000000	0.00000000000000	15.62327500000000	0.00000000000000	0.00000000000000	0.00000000000000	0.00000000000000	
1.72165800000000	3.67090200000000	722.91457000000003	38.49319800000000	0.19646000000000	0.00000000000000	0.10155100000000	0.00000000000000	0.00000000000000	0.00000000000000	0.00000000000000	0.00000000000000	0.00000000000000	0.00000000000000	15.71714600000000	0.00000000000000	0.00000000000000	0.00000000000000	0.00000000000000	
1.72333200000000	3.27396200000000	724.00547600000004	38.57339000000000	0.19561900000000	0.00000000000000	0.10156300000000	0.00000000000000	0.00000000000000	0.00000000000000	0.00000000000000	0.00000000000000	0.00000000000000	0.00000000000000	15.81293800000000	0.00000000000000	0.00000000000000	0.00000000000000	0.00000000000000	
1.72499600000000	2.87010500000000	725.12138400000003	38.65694400000000	0.19476500000000	0.00000000000000	0.10157600000000	0.00000000000000	0.00000000000000	0.00000000000000	0.00000000000000	0.00000000000000	0.00000000000000	0.00000000000000	15.91055500000000	0.00000000000000	0.00000000000000	0.00000000000000	0.00000000000000	
1.72665700000000	2.45919100000000	726.26125700000000	38.74376200000000	0.19389800000000	0.00000000000000	0.10158900000000	0.00000000000000	0.00000000000000	0.00000000000000	0.00000000000000	0.00000000000000	0.00000000000000	0.00000000000000	16.00989500000000	0.00000000000000	0.00000000000000	0.00000000000000	0.00000000000000	
1.72832500000000	2.04111700000000	727.42410299999995	38.83375100000000	0.19301900000000	0.00000000000000	0.10160300000000	0.00000000000000	0.00000000000000	0.00000000000000	0.00000000000000	0.00000000000000	0.00000000000000	0.00000000000000	16.11085600000000	0.00000000000000	0.00000000000000	0.00000000000000	0.00000000000000	
1.72999600000000	1.61581700000000	728.60897299999999	38.92682000000000	0.19212800000000	0.00000000000000	0.10161700000000	0.00000000000000	0.00000000000000	0.00000000000000	0.00000000000000	0.00000000000000	0.00000000000000	0.00000000000000	16.21332900000000	0.00000000000000	0.00000000000000	0.00000000000000	0.00000000000000	
1.73166500000000	1.18326600000000	729.81496200000004	39.02288300000000	0.19122500000000	0.00000000000000	0.10163100000000	0.00000000000000	0.00000000000000	0.00000000000000	0.00000000000000	0.00000000000000	0.00000000000000	0.00000000000000	16.31720800000000	0.00000000000000	0.00000000000000	0.00000000000000	0.00000000000000	
1.73332900000000	0.74347700000000	731.04120899999998	39.12185600000000	0.19031000000000	0.00000000000000	0.10164600000000	0.00000000000000	0.00000000000000	0.00000000000000	0.00000000000000	0.00000000000000	0.00000000000000	0.00000000000000	16.42237900000000	0.00000000000000	0.00000000000000	0.00000000000000	0.00000000000000	
1.73499400000000	0.29650300000000	732.28689799999995	39.22366200000000	0.18938400000000	0.00000000000000	0.10166000000000	0.00000000000000	0.00000000000000	0.00000000000000	0.00000000000000	0.00000000000000	0.00000000000000	0.00000000000000	16.52873000000000	0.00000000000000	0.00000000000000	0.00000000000000	0.00000000000000	
